<svg width="29" height="28" viewBox="0 0 29 28" fill="none" xmlns="http://www.w3.org/2000/svg">
<path d="M14.067 14.725C13.651 14.7266 13.2469 14.8648 12.9171 15.1184C12.5872 15.372 12.3498 15.7269 12.2413 16.1285C12.1327 16.5302 12.1591 16.9564 12.3164 17.3416C12.4737 17.7268 12.7531 18.0496 13.1118 18.2606V20.9691H15.0456V18.2606C15.3293 18.0927 15.5648 17.8543 15.7291 17.5685C15.8935 17.2827 15.981 16.9593 15.9834 16.6296V16.6296C15.9834 16.3785 15.9337 16.1299 15.8373 15.898C15.7408 15.6662 15.5995 15.4557 15.4214 15.2787C15.2433 15.1017 15.0319 14.9616 14.7995 14.8666C14.5671 14.7715 14.3181 14.7234 14.067 14.725V14.725Z" stroke="white" stroke-linecap="round" stroke-linejoin="round"/>
<path d="M21.2257 10.3506H6.90264C5.51293 10.3506 4.38635 11.4771 4.38635 12.8668V22.8213C4.38635 24.211 5.51293 25.3376 6.90264 25.3376H21.2257C22.6154 25.3376 23.742 24.211 23.742 22.8213V12.8668C23.742 11.4771 22.6154 10.3506 21.2257 10.3506Z" stroke="white" stroke-linecap="round" stroke-linejoin="round"/>
<path d="M7.86365 10.3506V8.8303C7.86365 7.18352 8.51783 5.6042 9.68227 4.43975C10.8467 3.2753 12.426 2.62112 14.0728 2.62112C15.7196 2.62112 17.2989 3.2753 18.4634 4.43975C19.6278 5.6042 20.282 7.18352 20.282 8.8303V10.3506" stroke="white" stroke-linecap="round" stroke-linejoin="round"/>
</svg>
