<svg width="29" height="28" viewBox="0 0 29 28" fill="none" xmlns="http://www.w3.org/2000/svg">
<path d="M24.5516 5.24228H3.58251C3.11906 5.24228 2.6746 5.42638 2.34689 5.75409C2.01919 6.08179 1.83508 6.52626 1.83508 6.9897V20.9691C1.83508 21.4325 2.01919 21.877 2.34689 22.2047C2.6746 22.5324 3.11906 22.7165 3.58251 22.7165H24.5516C25.015 22.7165 25.4595 22.5324 25.7872 22.2047C26.1149 21.877 26.299 21.4325 26.299 20.9691V6.9897C26.299 6.52626 26.1149 6.08179 25.7872 5.75409C25.4595 5.42638 25.015 5.24228 24.5516 5.24228V5.24228ZM22.6294 6.9897L14.067 12.9135L5.50467 6.9897H22.6294ZM3.58251 20.9691V7.78478L13.569 14.6958C13.7153 14.7973 13.889 14.8517 14.067 14.8517C14.245 14.8517 14.4188 14.7973 14.5651 14.6958L24.5516 7.78478V20.9691H3.58251Z" fill="white"/>
</svg>
